HIERARCHY
ROOT Hips
{
	OFFSET 0.000000 0.000000 0.000000 
	CHANNELS 6 Xposition Yposition Zposition Yrotation Zrotation Xrotation 
	JOINT Lumbar
	{
		OFFSET 0.000000 0.000000 0.000000 
		CHANNELS 3 Zrotation Xrotation Yrotation
		JOINT Neck
		{
			OFFSET 0.000000 0.445665 0.000000 
			CHANNELS 3 Zrotation Xrotation Yrotation
			End Site
			{
				OFFSET 0.000000 0.227535 0.000000 
			}
		}
		JOINT RightShoulder
		{
			OFFSET 0.019635 0.377685 0.194865 
			CHANNELS 3 Zrotation Xrotation Yrotation
			JOINT RightElbow
			{
				OFFSET 0.000000 -0.243375 0.000000 
				CHANNELS 2 Zrotation Yrotation
				JOINT RightWrist
				{
					OFFSET 0.000000 -0.264825 0.000000 
					CHANNELS 2 Zrotation Xrotation
					End Site
					{
						OFFSET 0.006600 -0.176220 0.000990 
					}
				}
			}
		}
		JOINT LeftShoulder
		{
			OFFSET 0.019635 0.377685 -0.194865 
			CHANNELS 3 Zrotation Xrotation Yrotation
			JOINT LeftElbow
			{
				OFFSET 0.000000 -0.243375 0.000000 
				CHANNELS 2 Zrotation Yrotation
				JOINT LeftWrist
				{
					OFFSET 0.000000 -0.264825 0.000000 
					CHANNELS 2 Zrotation Xrotation
					End Site
					{
						OFFSET 0.006600 -0.176220 -0.000990 
					}
				}
			}
		}
	}
	JOINT RightHip
	{
		OFFSET 0.052140 -0.069960 0.075570 
		CHANNELS 3 Zrotation Xrotation Yrotation
		JOINT RightKnee
		{
			OFFSET 0.000000 -0.402270 0.000000 
			CHANNELS 1 Zrotation
			JOINT RightAnkle
			{
				OFFSET 0.000000 -0.404085 0.000000 
				CHANNELS 3 Zrotation Xrotation Yrotation
				End Site
				{
					OFFSET 0.204105 -0.089430 0.008415 
				}
			}
		}
	}
	JOINT LeftHip
	{
		OFFSET 0.052140 -0.069960 -0.075570 
		CHANNELS 3 Zrotation Xrotation Yrotation
		JOINT LeftKnee
		{
			OFFSET 0.000000 -0.402270 0.000000 
			CHANNELS 1 Zrotation
			JOINT LeftAnkle
			{
				OFFSET 0.000000 -0.404085 0.000000 
				CHANNELS 3 Zrotation Xrotation Yrotation
				End Site
				{
					OFFSET 0.204105 -0.089430 -0.008415 
				}
			}
		}
	}
}
MOTION
Frames: 27
Frame Time: 0.02
-1.0273 -0.24898 1.25633 -937.91775 -42.50595 -12.58135 42.87222 -2.30072 -5.42845 -6.85961 3.5235 -2.11994 12.14443 -37.35277 4.40837 104.73781 108.82337 -32.49499 -6.90872 -13.69589 17.8201 -8.98002 121.44963 -98.57549 -22.37105 6.31951 49.84743 -12.3646 -8.21343 -39.28651 -7.55858 -1.37285 -2.94576 33.75464 -6.26506 15.51222 -13.97812 -6.87303 1.86102 3.15349
-1.03545 -0.25094 1.25268 -938.43976 -42.63827 -12.65089 42.91365 -2.36933 -5.44895 -6.94168 3.51079 -2.11994 12.26646 -37.30761 4.41412 105.05669 104.75326 -31.78077 -6.32423 -13.73822 17.38587 -9.26275 121.52094 -96.881 -21.49771 6.04974 50.96287 -11.81617 -8.35686 -36.20001 -7.65493 -1.56859 -3.04682 32.66465 -6.66398 15.1365 -12.5797 -5.11309 2.09243 3.15717
-1.04362 -0.25312 1.24848 -938.95261 -42.78436 -12.62518 43.00443 -2.47404 -5.39055 -7.05722 3.48496 -2.11994 12.38415 -37.2854 4.42165 105.46448 98.68922 -30.37137 -5.47017 -13.87486 16.95566 -9.58696 121.61566 -94.08242 -20.12789 5.58675 51.98896 -11.31148 -8.14821 -32.94048 -7.79275 -1.80897 -3.17198 31.51481 -7.14497 14.68623 -11.07217 -2.84339 2.3661 3.14866
-1.0518 -0.25522 1.24449 -939.46408 -42.9298 -12.6386 43.08027 -2.56336 -5.3715 -7.15623 3.46556 -2.11994 12.51097 -37.26315 4.41759 105.84589 93.57211 -29.28095 -4.72763 -13.97368 16.52381 -9.88555 121.70507 -91.7939 -18.99085 5.19107 53.06309 -10.80548 -8.12492 -29.81681 -7.90578 -2.02261 -3.28269 30.39728 -7.58831 14.28419 -9.61846 -0.8086 2.61292 3.13769
-1.0599 -0.25721 1.2407 -940.00209 -43.05412 -12.66872 43.12621 -2.6489 -5.33435 -7.26063 3.44402 -2.11994 12.61056 -37.19745 4.45901 106.16863 88.29269 -28.20336 -4.02817 -14.05222 16.08197 -10.21409 121.77441 -89.4858 -17.83285 4.88085 54.10447 -10.22189 -7.99828 -26.40992 -8.04941 -2.26266 -3.40803 29.25996 -8.03582 13.80519 -8.14095 1.25496 2.91529 3.16838
-1.06819 -0.25949 1.23633 -940.47889 -43.22377 -12.64169 43.24485 -2.75025 -5.31861 -7.36168 3.42422 -2.11994 12.76294 -37.22935 4.40604 106.63415 82.9029 -26.92689 -3.18305 -14.19511 15.66644 -10.4901 121.88915 -86.96335 -16.60019 4.35238 55.18789 -9.80998 -8.00106 -23.57106 -8.13789 -2.45897 -3.50888 28.14886 -8.49127 13.48834 -6.69378 3.36182 3.0831 3.09952
-1.07693 -0.26252 1.23063 -940.82173 -43.52679 -12.48186 43.56066 -2.89175 -5.36651 -7.44736 3.40857 -2.11994 13.08333 -37.50202 4.09333 107.47644 77.32805 -25.23817 -1.91498 -14.49191 15.30969 -10.60357 122.13646 -83.95633 -15.24345 3.20276 56.47621 -9.86077 -8.45613 -22.30343 -8.05338 -2.51921 -3.53349 27.12625 -8.97076 13.45353 -5.30309 5.61161 3.14315 2.85579
-1.08589 -0.26584 1.22434 -941.09805 -43.87253 -12.26821 43.94652 -3.04667 -5.44137 -7.52839 3.39604 -2.11994 13.4527 -37.87538 3.6855 108.45858 71.76565 -23.37683 -0.52348 -14.85049 14.98255 -10.66338 122.42626 -80.79655 -13.83401 1.85107 57.7981 -10.0821 -9.05069 -21.62584 -7.91301 -2.53469 -3.53307 26.13178 -9.45078 13.60488 -3.95708 7.85908 3.03464 2.5029
-1.09478 -0.26904 1.21823 -941.38216 -44.19099 -12.0775 44.29419 -3.19231 -5.5144 -7.61 3.3843 -2.11994 13.78585 -38.21838 3.32014 109.37379 66.44288 -21.61024 0.75318 -15.1807 14.65179 -10.75281 122.68765 -77.81069 -12.47298 0.63514 59.06235 -10.22662 -9.57634 -20.70999 -7.80414 -2.57373 -3.54595 25.123 -9.91642 13.80971 -2.62588 10.01093 2.79863 2.12528
-1.10351 -0.2722 1.21251 -941.757 -44.54339 -11.88748 44.6691 -3.35375 -5.54223 -7.69843 3.36188 -2.11994 14.17859 -38.50014 2.95734 110.30612 60.04825 -19.74502 2.28025 -15.51419 14.28062 -10.82339 122.98739 -74.35071 -10.99252 -0.77016 60.50401 -10.37281 -10.11665 -19.66279 -7.67087 -2.60113 -3.55175 24.11781 -10.4463 13.48685 -1.14185 12.59071 3.34547 2.02531
-1.11264 -0.27551 1.20582 -941.9318 -44.83477 -11.68748 45.00493 -3.48363 -5.66964 -7.77213 3.36373 -2.11994 14.45792 -38.92939 2.56746 111.23513 55.87418 -18.06079 3.32027 -15.85586 13.99922 -10.91776 123.21815 -71.84995 -9.75354 -1.82996 61.58315 -10.5516 -10.65963 -19.02973 -7.57476 -2.64107 -3.56581 23.11358 -10.83932 14.23566 0.01085 14.26952 2.32187 1.36616
-1.12274 -0.27925 1.19678 -941.53116 -44.9492 -11.44762 45.20071 -3.53464 -6.08309 -7.79743 3.42222 -2.11994 14.42114 -39.77285 2.12013 112.11739 58.19448 -16.85447 2.90777 -16.19097 13.97106 -11.10899 123.23847 -72.09433 -9.2071 -1.85559 61.67112 -10.81169 -11.21653 -19.41608 -7.59264 -2.73048 -3.61059 22.0996 -10.87149 18.54351 0.26154 13.48022 -3.89234 -1.21003
-1.13325 -0.2831 1.18676 -940.93908 -45.00002 -11.20457 45.357 -3.55121 -6.59286 -7.80953 3.50666 -2.11994 14.26752 -40.7553 1.65088 112.99131 62.6956 -15.85067 2.013 -16.53413 14.02997 -11.32224 123.18964 -73.30384 -8.90605 -1.53114 61.38975 -11.09248 -11.76595 -20.19624 -7.64974 -2.83303 -3.66404 21.08877 -10.76208 23.81892 0.17575 11.77945 -11.53631 -4.28095
-1.14362 -0.28684 1.17709 -940.46022 -45.07895 -10.98049 45.54129 -3.57566 -7.04746 -7.83336 3.5859 -2.11994 14.1606 -41.65325 1.19441 113.87126 65.96218 -14.80085 1.38967 -16.88259 14.04068 -11.51363 123.17851 -74.03813 -8.48606 -1.38638 61.26666 -11.34176 -12.29326 -20.78364 -7.69058 -2.92688 -3.71228 20.07808 -10.70605 28.20875 0.24676 10.47909 -17.91078 -6.84996
-1.15378 -0.29087 1.16781 -939.86752 -45.16391 -10.68153 45.68675 -3.63294 -7.5514 -7.83296 3.63837 -2.11994 14.07964 -42.64463 0.7189 114.74815 70.2356 -13.55428 0.55413 -17.19628 14.08855 -11.75402 123.14208 -74.92061 -8.09322 -1.16262 61.18689 -11.6897 -12.93091 -21.44904 -7.72419 -3.03102 -3.76524 19.05418 -10.69717 34.42341 0.31481 9.23183 -26.81696 -10.54971
-1.16446 -0.29432 1.15749 -939.46838 -45.2192 -10.53721 45.90134 -3.61409 -7.97469 -7.87981 3.7515 -2.11994 13.91969 -43.47334 0.28387 115.62581 72.95516 -12.76297 0.03942 -17.58246 14.07971 -11.89728 123.14174 -75.72623 -7.70541 -1.01664 60.92647 -11.83562 -13.3377 -22.0387 -7.78126 -3.11705 -3.81049 18.06761 -10.55543 37.14484 0.29096 7.66436 -30.90089 -12.06411
-1.17653 -0.29616 1.14458 -939.64201 -45.21976 -10.8318 46.32754 -3.38807 -8.15492 -8.06139 4.03609 -2.11994 13.54106 -43.81671 -0.07427 116.52137 70.63575 -13.22622 0.57022 -18.17398 13.88989 -11.77631 123.25398 -76.08227 -7.25165 -1.17796 60.27665 -11.4113 -13.0874 -22.31293 -7.90784 -3.15314 -3.83467 17.1042 -10.08991 29.28314 0.25431 5.37557 -20.32687 -6.95325
-1.18908 -0.29741 1.13067 -940.0189 -45.18999 -11.28009 46.82157 -3.08758 -8.24973 -8.29061 4.37879 -2.11994 13.09274 -43.9919 -0.38284 117.41427 66.71711 -14.13431 1.43189 -18.83568 13.64079 -11.55583 123.405 -76.32896 -6.79916 -1.42721 59.45396 -10.78378 -12.60868 -22.49623 -8.05434 -3.17013 -3.85046 16.19383 -9.49396 17.99593 0.10635 2.80735 -5.02465 0.29174
-1.20135 -0.29889 1.11721 -940.3088 -45.16663 -11.65133 47.2778 -2.82459 -8.3817 -8.49764 4.68821 -2.11994 12.69449 -44.24444 -0.68733 118.29921 63.67206 -14.807 2.11441 -19.46136 13.42022 -11.37437 123.54123 -76.62716 -6.35856 -1.63082 58.6979 -10.25278 -12.24749 -22.72478 -8.18246 -3.194 -3.86867 15.30977 -8.95217 8.74353 -0.09316 0.4062 7.45007 6.2459
-1.21391 -0.30053 1.10372 -940.56959 -45.17337 -12.05385 47.76495 -2.54485 -8.52492 -8.70735 5.02793 -2.11994 12.21218 -44.49623 -1.10529 119.22445 60.08499 -15.62089 2.9026 -20.10832 13.19447 -11.21777 123.66494 -76.95048 -5.87115 -1.84682 57.9798 -9.70362 -11.82684 -22.95098 -8.35094 -3.2261 -3.89311 14.20919 -8.4271 -2.46689 0.131 -2.19673 22.69833 13.51755
-1.22597 -0.30171 1.09008 -940.94138 -45.10961 -12.42646 48.20081 -2.28292 -8.62209 -8.92189 5.31753 -2.11994 11.89283 -44.71008 -1.27443 120.06295 57.21654 -16.25131 3.55442 -20.72308 12.96623 -10.98807 123.82253 -77.18394 -5.48172 -2.06178 57.14583 -9.14544 -11.47755 -23.15511 -8.44006 -3.23611 -3.90239 13.5769 -7.83802 -10.4583 -0.55462 -4.43288 33.36387 18.58371
-1.23669 -0.30174 1.07615 -941.57534 -44.87072 -12.68995 48.50814 -2.08747 -8.62138 -9.14745 5.45853 -2.11994 12.01683 -44.83866 -0.77171 120.6818 56.73938 -16.20315 3.75903 -21.27006 12.72796 -10.55869 124.0841 -77.18496 -5.33372 -2.25705 56.04025 -8.59734 -11.36656 -23.31863 -8.30105 -3.19164 -3.87243 14.18437 -7.1062 -8.44098 -3.67555 -5.5904 29.76864 16.81998
-1.24687 -0.30135 1.06214 -942.31443 -44.55988 -12.91592 48.75599 -1.91299 -8.57501 -9.37459 5.54623 -2.11994 12.31257 -44.93727 -0.01971 121.20988 57.03185 -15.96755 3.8145 -21.77544 12.49174 -10.06322 124.37489 -77.09782 -5.28911 -2.44759 54.82468 -8.04998 -11.33795 -23.46104 -8.08216 -3.12514 -3.82733 15.26863 -6.31564 -3.12307 -7.71308 -6.36327 21.48784 12.80537
-1.2572 -0.30118 1.04824 -943.00228 -44.27447 -13.15187 49.01201 -1.72954 -8.54382 -9.59485 5.65554 -2.11994 12.54538 -45.06423 0.62045 121.76692 56.94414 -15.85594 3.93514 -22.27417 12.26617 -9.61243 124.63983 -77.05175 -5.214 -2.64084 53.65742 -7.51156 -11.28132 -23.61275 -7.90225 -3.06754 -3.78879 16.16129 -5.55021 0.49369 -11.36532 -7.30698 15.65619 9.96752
-1.26794 -0.30085 1.03395 -943.70988 -44.01905 -13.42323 49.35068 -1.54062 -8.53406 -9.84255 5.77784 -2.11994 12.71047 -45.12698 1.25668 122.37576 56.90932 -15.58893 4.08202 -22.88153 11.99115 -9.0963 124.95987 -76.99289 -5.06676 -2.84071 52.49119 -6.92614 -11.17723 -23.7642 -7.71138 -3.01423 -3.75143 16.9507 -4.78319 4.83964 -14.90092 -8.28108 8.64502 6.55766
-1.27769 -0.30076 1.02048 -944.401 -43.68397 -13.60967 49.50134 -1.36966 -8.46889 -10.03314 5.85977 -2.11994 13.06005 -45.31382 1.95908 122.8552 56.99415 -15.60427 4.12957 -23.25396 11.81854 -8.70194 125.1707 -76.94774 -5.09765 -3.01687 51.29873 -6.44243 -11.19418 -23.91052 -7.52459 -2.94665 -3.70799 18.06675 -4.01171 8.49667 -18.8815 -9.09264 2.90842 3.77279
-1.28486 -0.30148 1.00921 -945.00159 -43.15168 -13.5722 49.15504 -1.23855 -8.27047 -10.06294 5.84174 -2.11994 13.86485 -45.89162 2.78995 122.99929 56.9976 -16.36304 3.98224 -22.96959 11.94483 -8.65964 125.08073 -76.90544 -5.56591 -3.19645 50.06555 -6.23187 -11.52781 -24.06321 -7.3644 -2.84814 -3.65285 19.97675 -3.20435 9.44705 -23.98283 -9.58203 1.88581 3.29019
